<mxfile host="app.diagrams.net" modified="2022-10-09T09:50:24.785Z" agent="5.0 (Windows NT 10.0; Win64; x64) AppleWebKit/537.36 (KHTML, like Gecko) Chrome/105.0.0.0 Safari/537.36" etag="wcoQHjfw5tTmz7GByvom" version="20.3.3" type="github">
  <diagram id="TPG7t71CeF8NjuG5Dst3" name="第 1 页">
    <mxGraphModel dx="1038" dy="587" grid="1" gridSize="10" guides="1" tooltips="1" connect="1" arrows="1" fold="1" page="1" pageScale="1" pageWidth="827" pageHeight="1169" math="0" shadow="0">
      <root>
        <mxCell id="0" />
        <mxCell id="1" parent="0" />
        <mxCell id="2qiqjTw69wxBbWPIKwgI-6" style="edgeStyle=orthogonalEdgeStyle;orthogonalLoop=1;jettySize=auto;html=1;entryX=0.5;entryY=0;entryDx=0;entryDy=0;fontFamily=Helvetica;fontSize=16;rounded=1;strokeColor=default;dashed=1;" edge="1" parent="1" source="2qiqjTw69wxBbWPIKwgI-1" target="2qiqjTw69wxBbWPIKwgI-2">
          <mxGeometry relative="1" as="geometry" />
        </mxCell>
        <mxCell id="2qiqjTw69wxBbWPIKwgI-20" value="一致" style="edgeLabel;html=1;align=center;verticalAlign=middle;resizable=0;points=[];fontSize=14;fontFamily=Helvetica;labelBackgroundColor=#FFFFFF;" vertex="1" connectable="0" parent="2qiqjTw69wxBbWPIKwgI-6">
          <mxGeometry x="-0.2353" y="-1" relative="1" as="geometry">
            <mxPoint as="offset" />
          </mxGeometry>
        </mxCell>
        <mxCell id="2qiqjTw69wxBbWPIKwgI-7" style="edgeStyle=orthogonalEdgeStyle;rounded=1;orthogonalLoop=1;jettySize=auto;html=1;fontFamily=Helvetica;fontSize=16;entryX=0.5;entryY=0;entryDx=0;entryDy=0;dashed=1;" edge="1" parent="1" source="2qiqjTw69wxBbWPIKwgI-1" target="2qiqjTw69wxBbWPIKwgI-5">
          <mxGeometry relative="1" as="geometry">
            <Array as="points">
              <mxPoint x="563" y="140" />
            </Array>
          </mxGeometry>
        </mxCell>
        <mxCell id="2qiqjTw69wxBbWPIKwgI-21" value="不同" style="edgeLabel;html=1;align=center;verticalAlign=middle;resizable=0;points=[];fontSize=14;fontFamily=Helvetica;" vertex="1" connectable="0" parent="2qiqjTw69wxBbWPIKwgI-7">
          <mxGeometry x="-0.4837" y="2" relative="1" as="geometry">
            <mxPoint as="offset" />
          </mxGeometry>
        </mxCell>
        <mxCell id="2qiqjTw69wxBbWPIKwgI-1" value="差异波特征&lt;br style=&quot;font-size: 14px;&quot;&gt;（潜伏期和头皮分布）" style="rounded=0;whiteSpace=wrap;html=1;fontSize=14;fontFamily=Helvetica;fillColor=#d5e8d4;strokeColor=none;" vertex="1" parent="1">
          <mxGeometry x="270" y="110" width="160" height="50" as="geometry" />
        </mxCell>
        <mxCell id="2qiqjTw69wxBbWPIKwgI-11" style="edgeStyle=orthogonalEdgeStyle;rounded=1;orthogonalLoop=1;jettySize=auto;html=1;entryX=0.5;entryY=0;entryDx=0;entryDy=0;fontFamily=Helvetica;fontSize=14;" edge="1" parent="1" source="2qiqjTw69wxBbWPIKwgI-2" target="2qiqjTw69wxBbWPIKwgI-10">
          <mxGeometry relative="1" as="geometry" />
        </mxCell>
        <mxCell id="2qiqjTw69wxBbWPIKwgI-2" value="可能是相同的成分" style="rounded=0;whiteSpace=wrap;html=1;fontSize=14;fontFamily=Helvetica;fillColor=#fff2cc;strokeColor=none;" vertex="1" parent="1">
          <mxGeometry x="80" y="210" width="145" height="40" as="geometry" />
        </mxCell>
        <mxCell id="2qiqjTw69wxBbWPIKwgI-15" style="edgeStyle=orthogonalEdgeStyle;rounded=1;orthogonalLoop=1;jettySize=auto;html=1;entryX=0.5;entryY=0;entryDx=0;entryDy=0;fontFamily=Helvetica;fontSize=14;" edge="1" parent="1" source="2qiqjTw69wxBbWPIKwgI-3" target="2qiqjTw69wxBbWPIKwgI-14">
          <mxGeometry relative="1" as="geometry" />
        </mxCell>
        <mxCell id="2qiqjTw69wxBbWPIKwgI-3" value="潜伏期差异较大" style="rounded=0;whiteSpace=wrap;html=1;fontSize=14;fontFamily=Helvetica;fillColor=#d5e8d4;strokeColor=none;" vertex="1" parent="1">
          <mxGeometry x="608" y="300" width="150" height="40" as="geometry" />
        </mxCell>
        <mxCell id="2qiqjTw69wxBbWPIKwgI-13" style="edgeStyle=orthogonalEdgeStyle;rounded=1;orthogonalLoop=1;jettySize=auto;html=1;entryX=0.5;entryY=0;entryDx=0;entryDy=0;fontFamily=Helvetica;fontSize=14;" edge="1" parent="1" source="2qiqjTw69wxBbWPIKwgI-4" target="2qiqjTw69wxBbWPIKwgI-12">
          <mxGeometry relative="1" as="geometry" />
        </mxCell>
        <mxCell id="2qiqjTw69wxBbWPIKwgI-4" value="头皮分布有小的差异" style="rounded=0;whiteSpace=wrap;html=1;fontSize=14;fontFamily=Helvetica;fillColor=#d5e8d4;strokeColor=none;" vertex="1" parent="1">
          <mxGeometry x="348" y="300" width="150" height="40" as="geometry" />
        </mxCell>
        <mxCell id="2qiqjTw69wxBbWPIKwgI-8" style="edgeStyle=orthogonalEdgeStyle;rounded=1;orthogonalLoop=1;jettySize=auto;html=1;entryX=0.5;entryY=0;entryDx=0;entryDy=0;fontFamily=Helvetica;fontSize=16;" edge="1" parent="1" source="2qiqjTw69wxBbWPIKwgI-5" target="2qiqjTw69wxBbWPIKwgI-4">
          <mxGeometry relative="1" as="geometry">
            <Array as="points">
              <mxPoint x="563" y="270" />
              <mxPoint x="423" y="270" />
            </Array>
          </mxGeometry>
        </mxCell>
        <mxCell id="2qiqjTw69wxBbWPIKwgI-9" style="edgeStyle=orthogonalEdgeStyle;rounded=1;orthogonalLoop=1;jettySize=auto;html=1;fontFamily=Helvetica;fontSize=16;exitX=0.5;exitY=1;exitDx=0;exitDy=0;" edge="1" parent="1" source="2qiqjTw69wxBbWPIKwgI-5" target="2qiqjTw69wxBbWPIKwgI-3">
          <mxGeometry relative="1" as="geometry">
            <mxPoint x="568" y="290" as="sourcePoint" />
            <Array as="points">
              <mxPoint x="563" y="270" />
              <mxPoint x="683" y="270" />
            </Array>
          </mxGeometry>
        </mxCell>
        <mxCell id="2qiqjTw69wxBbWPIKwgI-5" value="进一步的证据" style="rounded=0;whiteSpace=wrap;html=1;fontSize=14;fontFamily=Helvetica;fillColor=#fff2cc;strokeColor=none;" vertex="1" parent="1">
          <mxGeometry x="488" y="210" width="150" height="40" as="geometry" />
        </mxCell>
        <mxCell id="2qiqjTw69wxBbWPIKwgI-10" value="实验效应和个体差异&lt;br&gt;是否一致" style="rounded=0;whiteSpace=wrap;html=1;fontSize=14;fontFamily=Helvetica;fillColor=#dae8fc;strokeColor=none;" vertex="1" parent="1">
          <mxGeometry x="80" y="380" width="145" height="50" as="geometry" />
        </mxCell>
        <mxCell id="2qiqjTw69wxBbWPIKwgI-18" style="edgeStyle=orthogonalEdgeStyle;rounded=1;orthogonalLoop=1;jettySize=auto;html=1;entryX=0.5;entryY=0;entryDx=0;entryDy=0;fontFamily=Helvetica;fontSize=14;dashed=1;" edge="1" parent="1" source="2qiqjTw69wxBbWPIKwgI-12" target="2qiqjTw69wxBbWPIKwgI-17">
          <mxGeometry relative="1" as="geometry" />
        </mxCell>
        <mxCell id="2qiqjTw69wxBbWPIKwgI-12" value="头皮分布是否&lt;br&gt;随时间变化" style="rounded=0;whiteSpace=wrap;html=1;fontSize=14;fontFamily=Helvetica;fillColor=#d5e8d4;strokeColor=none;" vertex="1" parent="1">
          <mxGeometry x="348" y="380" width="150" height="50" as="geometry" />
        </mxCell>
        <mxCell id="2qiqjTw69wxBbWPIKwgI-14" value="相关过程的时序&lt;br&gt;是否出现变化" style="rounded=0;whiteSpace=wrap;html=1;fontSize=14;fontFamily=Helvetica;fillColor=#dae8fc;strokeColor=none;" vertex="1" parent="1">
          <mxGeometry x="608" y="380" width="150" height="50" as="geometry" />
        </mxCell>
        <mxCell id="2qiqjTw69wxBbWPIKwgI-17" value="该效应包含多个成分" style="rounded=0;whiteSpace=wrap;html=1;fontSize=14;fontFamily=Helvetica;fillColor=#fff2cc;strokeColor=none;" vertex="1" parent="1">
          <mxGeometry x="348" y="470" width="150" height="40" as="geometry" />
        </mxCell>
      </root>
    </mxGraphModel>
  </diagram>
</mxfile>
